<?xml version="1.0" encoding="utf-8"?>
<!-- Generator: Adobe Illustrator 17.1.0, SVG Export Plug-In . SVG Version: 6.00 Build 0)  -->
<!DOCTYPE svg PUBLIC "-//W3C//DTD SVG 1.1//EN" "http://www.w3.org/Graphics/SVG/1.1/DTD/svg11.dtd">
<svg version="1.1" id="Ebene_1" xmlns="http://www.w3.org/2000/svg" xmlns:xlink="http://www.w3.org/1999/xlink" x="0px" y="0px"
	 viewBox="0 0 800 800" enable-background="new 0 0 800 800" xml:space="preserve" width="800px" height="800px">
<g>
	<path fill="#00586A" d="M800.005,400.004c0-220.589-179.437-400-400.006-400C179.421,0.004,0,179.416,0,400.004
		c0,220.563,179.421,400.001,399.999,400.001C620.568,800.005,800.005,620.567,800.005,400.004"/>
	<path fill-rule="evenodd" clip-rule="evenodd" fill="#FFFFFF" d="M263.264,458.252c0-36.828-27.51-60.522-60.943-65.603
		c30.463-11.834,50.788-30.033,50.788-63.476c-0.43-51.211-38.523-69.41-84.654-69.41H78.307v282.299h96.074
		C224.758,542.062,263.264,509.902,263.264,458.252 M199.78,335.943c0,25.822-16.501,40.635-41.91,40.635h-26.234v-76.619h30.049
		C185.81,299.959,199.78,312.232,199.78,335.943z M208.669,456.978c0,26.251-13.978,44.459-41.9,44.459h-35.131V416.36h36.397
		C192.158,416.36,208.669,432.432,208.669,456.978z"/>
	<path fill="#FFFFFF" d="M517.146,440.062V259.763h-53.313v176.905c0,35.14-9.319,67.309-47.835,67.309
		c-38.089,0-47.831-32.169-47.831-67.309V259.763h-53.321v180.299c0,66.86,32.591,106.652,101.153,106.652
		C482.437,546.714,517.146,506.922,517.146,440.062"/>
	<path fill="#FFFFFF" d="M735.581,459.105c0-96.075-112.999-63.476-112.999-125.703c0-31.307,21.152-38.094,48.231-38.094
		c16.089,0,31.764,2.541,46.148,8.888l10.576-41.048c-19.466-5.082-39.361-8.035-59.669-8.035
		c-51.643,0-99.047,24.968-99.047,82.087c0,98.211,111.312,61.805,111.312,125.702c0,34.701-27.51,44.02-56.707,44.02
		c-17.777,0-37.671-3.384-53.743-11.007l-0.862,42.762c19.896,6.34,41.066,8.036,62.219,8.036
		C685.214,546.714,735.581,519.626,735.581,459.105"/>
</g>
</svg>
