<?xml version="1.0" encoding="utf-8"?>
<!-- Generator: Adobe Illustrator 17.1.0, SVG Export Plug-In . SVG Version: 6.00 Build 0)  -->
<!DOCTYPE svg PUBLIC "-//W3C//DTD SVG 1.1//EN" "http://www.w3.org/Graphics/SVG/1.1/DTD/svg11.dtd">
<svg version="1.1" id="Ebene_1" xmlns="http://www.w3.org/2000/svg" xmlns:xlink="http://www.w3.org/1999/xlink" x="0px" y="0px"
	 viewBox="0 0 800 800" enable-background="new 0 0 800 800" xml:space="preserve">
<g>
	<path fill-rule="evenodd" clip-rule="evenodd" fill="#408335" d="M800,400.045C800,179.274,620.529,0,400.05,0
		C179.471,0,0,179.274,0,400.045C0,620.614,179.471,800,400.05,800C620.529,800,800,620.614,800,400.045"/>
	<path fill-rule="evenodd" clip-rule="evenodd" fill="#FFFFFF" d="M662.541,506.184c0,97.066-94.033,209.979-252.489,209.979
		c-88.176,0-190.18-39.688-245.93-89.59V500.638c52.92,76.051,149.067,134.531,245.93,134.531
		c59.376,0,106.952-34.141,106.952-70.09c0-136.857-358.037-52.331-358.037-288.05c0-123.816,120.896-190.065,229.368-190.065
		c90.481,0,171.595,29.49,235.931,79.375V271.37c-55.759-60.09-139.68-113.007-238.153-113.007
		c-55.552,0-87.367,29.696-87.367,64.328C298.747,369.04,662.541,266.22,662.541,506.184"/>
</g>
</svg>
