<?xml version="1.0" encoding="utf-8"?>
<!-- Generator: Adobe Illustrator 17.1.0, SVG Export Plug-In . SVG Version: 6.00 Build 0)  -->
<!DOCTYPE svg PUBLIC "-//W3C//DTD SVG 1.1//EN" "http://www.w3.org/Graphics/SVG/1.1/DTD/svg11.dtd">
<svg version="1.1" id="Ebene_1" xmlns="http://www.w3.org/2000/svg" xmlns:xlink="http://www.w3.org/1999/xlink" x="0px" y="0px"
	 viewBox="0 0 800 800" enable-background="new 0 0 800 800" xml:space="preserve" width="800px" height="800px">
<g>
	<g>
		<defs>
			<polyline id="SVGID_1_" points="0,0 0,800 800,800 800,0 			"/>
		</defs>
		<clipPath id="SVGID_2_">
			<use xlink:href="#SVGID_1_"  overflow="visible"/>
		</clipPath>
		<polyline clip-path="url(#SVGID_2_)" fill="#D82020" points="800,800 800,0 0,0 0,800 		"/>
		<polyline clip-path="url(#SVGID_2_)" fill="#FFFFFF" points="183.343,281.139 183.343,240.836 21.424,240.836 21.424,281.139
			77.74,281.139 77.74,502.103 127.019,502.103 127.019,281.139 		"/>
		<path clip-path="url(#SVGID_2_)" fill="#FFFFFF" d="M302.175,308.498c-3.528-1.553-10.959-2.344-14.479-2.344
			c-20.33,0-34.414,8.609-46.54,28.939l-3.519-25.42h-42.241v192.429h46.541V396.895c0-24.263,6.264-49.279,34.027-49.279
			c4.299,0,8.598,0.781,12.908,1.957"/>
		<path clip-path="url(#SVGID_2_)" fill-rule="evenodd" clip-rule="evenodd" fill="#FFFFFF" d="M466.662,502.103
			c-1.562-11.713-3.509-23.849-3.509-35.599V360.918c0-33.642-23.096-54.764-68.056-54.764c-20.358,0-44.207,2.344-62.981,10.951
			l7.827,32.467c13.298-7.028,31.672-10.161,45.764-10.161c20.339,0,32.449,8.985,32.449,28.939v21.506
			c-7.037-1.176-16.041-3.133-29.71-3.133c-43.803,0-73.923,21.506-73.923,61.405c0,35.572,19.154,57.483,56.706,57.483
			c21.498,0,37.538-9.371,48.508-26.192l3.508,22.682 M418.156,444.208c0,17.225-14.866,30.124-32.449,30.124
			c-17.216,0-24.253-12.127-24.253-28.562c0-16.822,9.774-32.054,31.677-32.054c11.335,0,19.952,1.58,25.025,3.519V444.208z"/>
		<path clip-path="url(#SVGID_2_)" fill="#FFFFFF" d="M759.522,502.103V366.394c0-33.643-16.408-60.24-52.402-60.24
			c-25.834,0-42.627,12.908-49.682,29.325c-6.248-13.67-18.392-29.325-48.875-29.325c-22.691,0-40.698,11.714-48.507,29.325
			l-3.528-25.806h-41.065v192.429h46.56V381.25c0-19.164,7.422-41.838,27.744-41.838c17.621,0,24.64,12.118,24.64,30.491v132.2
			h46.173V380.486c0-19.182,7.037-41.075,27.745-41.075c17.602,0,24.638,13.67,24.638,30.491v132.2"/>
	</g>
</g>
</svg>
